# xmcd
#
# Track frame offsets:
#	150
#	10177
#	22016
#	34447
#	45865
#	60359
#	71962
#	87908
#	101014
#	111244
#	124665
#	139224
#	149022
#	165402
#	177017
#	194469
#	204318
#	213959
#	224945
#	237594
#
# Disc length: 3309 seconds
#
# Revision: 0
# Processed by: cddbd v1.4PL0 Copyright (c) Steve Scherf et al.
# Submitted via: EasyCDDAExtractor 4.6.9.1
#
DISCID=2f0ceb14
DTITLE=Black Hills Country Band - Hill-Tops
DYEAR=1900
DGENRE=Country
TTITLE0=Under Stormy Day
TTITLE1=Sweet Dreams
TTITLE2=Three Steps To Heaven
TTITLE3=She Taught Me How To Jodel
TTITLE4=My Elusive Dreams
TTITLE5=California Sunset
TTITLE6=Sugar Daddy
TTITLE7=Dixie
TTITLE8=In The Shadow Of The Black Hills
TTITLE9=Doin' The Best I Can
TTITLE10=Piece Of Green
TTITLE11=Better Move It On Home
TTITLE12=Nobody Wants To Be Alone
TTITLE13=It's So Easy
TTITLE14=Sin City
TTITLE15=Tokyo Polka
TTITLE16=Seneca Square Dance
TTITLE17=Hold On Tight To Country Music
TTITLE18=Who's Gonna Fill Their Shoes
TTITLE19=All Keyed Up
EXTD=
EXTT0=
EXTT1=
EXTT2=
EXTT3=
EXTT4=
EXTT5=
EXTT6=
EXTT7=
EXTT8=
EXTT9=
EXTT10=
EXTT11=
EXTT12=
EXTT13=
EXTT14=
EXTT15=
EXTT16=
EXTT17=
EXTT18=
EXTT19=
PLAYORDER=
